<?xml version="1.0" encoding="utf-8"?>
<!-- Generator: Adobe Illustrator 20.1.0, SVG Export Plug-In . SVG Version: 6.00 Build 0)  -->
<!DOCTYPE svg PUBLIC "-//W3C//DTD SVG 1.1//EN" "http://www.w3.org/Graphics/SVG/1.1/DTD/svg11.dtd">
<svg version="1.1" id="Layer_1" xmlns="http://www.w3.org/2000/svg" xmlns:xlink="http://www.w3.org/1999/xlink" x="0px" y="0px"
	 viewBox="0 0 255 75" style="enable-background:new 0 0 255 75;" xml:space="preserve">
<style type="text/css">
	.st0{fill:#58A618;}
</style>
<g>
	<path class="st0" d="M84.3,31.5l-0.4,5.1H66.2v-1.5h1.4c0.8,0,1-0.3,1-1.2V18.2c0-0.9-0.4-1.2-1-1.2h-1.4v-1.5h17.3v4.4h-2.6v-1.3
		c0-1-0.4-1.2-1-1.2h-6.6v7.3H78c0.7,0,1-0.2,1-1.2v-0.7h2.4v5.7H79v-0.6c0-1-0.4-1.2-1-1.2h-4.6v8.1h6.2c1,0,1.4-0.1,1.7-1.3
		l0.4-1.9H84.3z"/>
	<path class="st0" d="M96.5,36.6h-3.6c-2.8,0-4.8-1.4-4.8-4.2v-9h-2.4V22h1.7c1.3,0,2.4-1.7,2.4-4.5h2.8V22h3.9v1.5h-3.9v9.2
		c0,1.6,1.2,2.5,2.3,2.5h1.6V36.6z"/>
	<path class="st0" d="M114.3,28.1v6c0,0.9,0.4,1.2,1,1.2h1.4v1.4h-8.7v-1.4h1c0.6,0,1-0.2,1-1.2v-6.5c0-3.1-0.6-4.1-2-4.1
		c-1,0-2.2,0.4-3.4,1.4v9.2c0,0.9,0.4,1.2,1,1.2h1v1.4h-8.7v-1.4h1.5c0.6,0,1-0.2,1-1.2v-16c0-0.9-0.3-1.2-0.9-1.2h-1.5v-1.2
		l6.8-0.9v8.2c1.3-0.9,2.8-1.4,4.9-1.4C112.6,21.6,114.3,23.1,114.3,28.1"/>
	<path class="st0" d="M122.6,16.1c1.2,0,2.1,0.9,2.1,2.1c0,1.2-0.9,2.1-2.1,2.1c-1.2,0-2.1-0.9-2.1-2.1
		C120.5,17,121.4,16.1,122.6,16.1 M127.3,36.6h-9.2v-1.4h1.4c0.6,0,1.1-0.2,1.1-1.2v-9.3c0-0.9-0.3-1.2-0.9-1.2h-1.5v-1.3l6.8-0.9
		v12.6c0,0.9,0.5,1.2,1,1.2h1.4V36.6z"/>
	<path class="st0" d="M142.2,26.8h-2.7l-0.1-1.3c-0.1-0.9-0.8-2.3-3.1-2.3c-2.1,0-3.2,1.7-3.2,5.6c0,4.6,1.2,6.3,3.6,6.3
		c1.6,0,3.5-0.6,4.9-1.6l0.2,1.9c-1.4,1-3.1,1.6-5.5,1.6c-5.5,0-7.6-2.9-7.6-8.1c0-4.9,2.9-7.3,7.6-7.3c2.5,0,4.6,0.8,5.9,1.6V26.8z
		"/>
	<path class="st0" d="M153,29.1h-2.5c-1.7,0-2.5,1.2-2.5,3.2c0,1.9,0.8,2.8,2,2.8c0.9,0,2.3-0.4,3-1.2V29.1z M159.9,36.6h-5.7
		l-0.5-1.4c-1.2,0.9-3,1.6-4.5,1.6c-3.7,0-5.6-2-5.6-4.3c0-3.1,2.2-4.9,6.6-4.9h2.8v-1.5c0-2.1-0.8-2.9-2.7-2.9
		c-1.8,0-2.3,0.6-2.6,1.9c-0.1,0.6-0.1,1-0.1,1.5h-2.8v-3.5c2-1.2,3.7-1.6,5.7-1.6c5.1,0,6.9,1.8,6.9,5.4v7.1c0,0.9,0.4,1.2,1.1,1.2
		h1.3V36.6z"/>
	<path class="st0" d="M170.1,36.6h-9.2v-1.4h1.3c0.8,0,1.1-0.2,1.1-1.2v-16c0-0.9-0.3-1.2-1-1.2h-1.4v-1.2l6.8-0.9v19.4
		c0,0.9,0.5,1.2,1.1,1.2h1.3V36.6z"/>
	<path class="st0" d="M196.8,20.7h-2.6l-0.5-1.9c-0.3-1.2-0.8-1.3-1.5-1.3h-3.1v16.5c0,0.9,0.5,1.2,1.1,1.2h1.3v1.5h-9.9v-1.5h1.6
		c0.6,0,1-0.3,1-1.2V17.4h-3c-0.7,0-1.3,0.1-1.5,1.3l-0.5,1.9h-2.6l0.4-5.2h19.4L196.8,20.7z"/>
	<path class="st0" d="M203.2,23.3c-2,0-3,1.4-3.1,4.2h5.3c0.3,0,0.4-0.3,0.4-0.6C205.9,24.3,204.6,23.3,203.2,23.3 M195.7,28.9
		c0-4.6,2.8-7.3,7.5-7.3c3.7,0,6.5,2.5,6.5,5.9c0,0.4,0,0.9-0.2,1.6h-9.4c0,4.4,1.2,6,3.6,6c1.6,0,3.5-0.6,4.9-1.6l0.2,1.9
		c-1.4,1-3.2,1.6-5.5,1.6C197.9,36.9,195.7,33.9,195.7,28.9"/>
	<path class="st0" d="M220.7,29.1h-2.5c-1.7,0-2.5,1.2-2.5,3.2c0,1.9,0.8,2.8,2,2.8c0.9,0,2.3-0.4,3-1.2V29.1z M227.6,36.6h-5.7
		l-0.5-1.4c-1.2,0.9-3,1.6-4.5,1.6c-3.7,0-5.6-2-5.6-4.3c0-3.1,2.2-4.9,6.6-4.9h2.8v-1.5c0-2.1-0.8-2.9-2.7-2.9
		c-1.8,0-2.3,0.6-2.6,1.9c-0.1,0.6-0.1,1-0.1,1.5h-2.8v-3.5c2-1.2,3.7-1.6,5.7-1.6c5.1,0,6.9,1.8,6.9,5.4v7.1c0,0.9,0.4,1.2,1.1,1.2
		h1.3V36.6z"/>
	<path class="st0" d="M76.8,45.6h-3.4v7.5h3.3c1.8,0,2.6-1.4,2.6-4.1C79.2,46.3,78.5,45.6,76.8,45.6 M76.5,54.9h-3.1v7.1
		c0,0.9,0.4,1.2,0.9,1.2h1.5v1.5h-9.6v-1.5h1.5c0.6,0,0.9-0.3,0.9-1.2V46.4c0-0.9-0.3-1.2-0.9-1.2h-1.5v-1.5h10.3
		c6,0,7.9,1.7,7.9,5.3C84.4,52.4,81.9,54.9,76.5,54.9"/>
	<path class="st0" d="M94.3,57.3h-2.5c-1.7,0-2.5,1.2-2.5,3.2c0,1.9,0.8,2.8,2,2.8c0.9,0,2.3-0.4,3-1.2V57.3z M101.1,64.8h-5.7
		L95,63.4c-1.2,1-3,1.6-4.5,1.6c-3.7,0-5.6-2-5.6-4.3c0-3.1,2.2-4.9,6.6-4.9h2.8v-1.5c0-2.1-0.8-2.9-2.7-2.9c-1.8,0-2.3,0.6-2.6,1.9
		c-0.1,0.6-0.1,1-0.1,1.5h-2.8v-3.5c2-1.2,3.6-1.6,5.7-1.6c5.1,0,6.9,1.8,6.9,5.3v7.1c0,0.9,0.4,1.2,1.1,1.2h1.3V64.8z"/>
	<path class="st0" d="M115.5,54.7h-2.3l-0.1-1.3c-0.1-0.9-0.7-1.1-1.1-1.1c-0.7,0-1.9,0.8-2.8,2.3v7.7c0,0.9,0.2,1.2,0.9,1.2h1.6
		v1.4h-9.2v-1.4h1.5c0.7,0,1-0.2,1-1.2V53c0-0.9-0.3-1.1-1-1.1h-1.5v-1.3l6.8-0.9v2.2c1-1.4,2.5-2,3.9-2h2.3V54.7z"/>
	<path class="st0" d="M127.4,64.8h-3.5c-2.8,0-4.8-1.4-4.8-4.2v-8.9h-2.5v-1.5h1.7c1.3,0,2.4-1.7,2.4-4.5h2.8v4.5h3.8v1.5h-3.8v9.2
		c0,1.6,1.2,2.5,2.3,2.5h1.6V64.8z"/>
	<path class="st0" d="M145.5,55.9v6.4c0,0.9,0.4,1.2,1,1.2h1.4v1.4h-8.7v-1.4h1c0.6,0,1-0.2,1-1.2V56c0-3.4-0.6-4.4-2-4.4
		c-1,0-2.2,0.4-3.4,1.4v9.2c0,0.9,0.4,1.2,1,1.2h1v1.4H129v-1.4h1.5c0.6,0,1-0.2,1-1.2V53c0-0.9-0.3-1.2-0.9-1.2H129v-1.2l6.7-0.9
		v1.4c1.1-0.7,2.7-1.3,4.8-1.3C143.7,49.8,145.5,52,145.5,55.9"/>
	<path class="st0" d="M156.8,51.4c-2,0-3,1.4-3.1,4.2h5.3c0.3,0,0.4-0.3,0.4-0.6C159.5,52.5,158.2,51.4,156.8,51.4 M149.3,57
		c0-4.6,2.8-7.3,7.5-7.3c3.7,0,6.5,2.5,6.5,5.9c0,0.4,0,0.9-0.2,1.6h-9.4c0,4.4,1.2,6,3.6,6c1.6,0,3.5-0.6,4.9-1.6l0.2,1.9
		c-1.4,1-3.1,1.6-5.5,1.6C151.5,65.1,149.3,62.1,149.3,57"/>
	<path class="st0" d="M178,54.7h-2.3l-0.1-1.3c-0.1-0.9-0.7-1.1-1.1-1.1c-0.8,0-1.9,0.8-2.8,2.3v7.7c0,0.9,0.2,1.2,0.9,1.2h1.6v1.4
		h-9.2v-1.4h1.5c0.7,0,1-0.2,1-1.2V53c0-0.9-0.3-1.1-1-1.1h-1.5v-1.3l6.8-0.9v2.2c1-1.4,2.5-2,3.9-2h2.3V54.7z"/>
	<path class="st0" d="M185.8,65.1c-1.8,0-4.3-0.7-5.8-1.7v-3.5h2.5l0.1,1.3c0.2,1.2,1.3,2.4,3,2.4c1.7,0,2.7-1.1,2.7-2.5
		c0-1.4-1.2-1.8-2.7-2.2C183,58.1,180,57,180,54c0-2.7,2.4-4.4,6-4.4c2,0,4,0.5,5.5,1.4v3.6h-2.6l-0.1-1.4c-0.2-1.3-1-2.1-2.5-2.1
		c-1.3,0-2.1,0.9-2.1,2.4c0,1.5,1.5,2.1,3,2.5c2.5,0.8,5.3,1.8,5.3,4.3C192.6,63.5,190.4,65.1,185.8,65.1"/>
	<path class="st0" d="M210.5,56.2v6c0,0.9,0.4,1.2,1,1.2h1.4v1.4h-8.7v-1.4h1c0.6,0,1-0.2,1-1.2v-6.5c0-3.1-0.6-4.1-2-4.1
		c-1,0-2.2,0.4-3.4,1.4v9.2c0,0.9,0.4,1.2,1,1.2h1v1.4h-8.7v-1.4h1.5c0.6,0,1-0.2,1-1.2v-16c0-0.9-0.3-1.2-0.9-1.2h-1.5v-1.2
		l6.8-0.9v8.2c1.3-0.9,2.8-1.4,4.9-1.4C208.8,49.8,210.5,51.2,210.5,56.2"/>
	<path class="st0" d="M218.4,44.3c1.2,0,2.1,0.9,2.1,2.1c0,1.2-0.9,2.1-2.1,2.1c-1.2,0-2.1-0.9-2.1-2.1
		C216.3,45.2,217.2,44.3,218.4,44.3 M223.2,64.8H214v-1.4h1.4c0.7,0,1.1-0.2,1.1-1.2V53c0-0.9-0.3-1.1-0.9-1.1H214v-1.3l6.8-0.9
		v12.6c0,0.9,0.5,1.2,1.1,1.2h1.4V64.8z"/>
	<path class="st0" d="M233.9,51.6c-1,0-2.2,0.6-3.3,1.5v8.5c0.9,0.9,2.2,1.6,2.9,1.6c1.5,0,2.4-1.5,2.4-5.8
		C235.9,53,235.3,51.6,233.9,51.6 M230.6,51c1.2-0.8,2.5-1.2,4-1.2c3.8,0,5.9,2.1,5.9,7.6c0,5.4-2.2,7.7-6,7.7
		c-1.8,0-2.9-0.4-3.9-1.3v5.4c0,0.9,0.5,1.2,1.1,1.2h1.3v1.4h-9.3v-1.4h1.6c0.7,0,1-0.3,1-1.2V53c0-0.9-0.3-1.1-0.9-1.1h-1.7v-1.3
		l6.8-0.9V51z"/>
	<path class="st0" d="M39.9,60.1c-12.5-5.6-15-15.8-21-23c-0.3-0.3,0.1-1.1,0.6-1.2c4.7-1.5,7.4,6.2,10.3,7.7
		c-3.9-6.2-6.8-11.6-9.1-21.1c-0.6-2.5,2.1-3.2,2.9-1.1c1.8,5.3,4.4,10.7,7.2,14.2c0.3,0.3,0.9,0.1,0.7-0.1c-2-3-6-11-8-17.3
		c-0.6-2,2.1-3,2.8-1.1c1.6,4,6.1,13,9.3,17.4c0.2,0.3,0.9,0.1,0.7-0.2c-3.5-5.6-6.3-11.5-8-15.6c-0.7-1.7,1.9-2.7,2.8-0.9
		c2.3,4.7,5.5,10.8,9.1,15.5c0.2,0.3,0.8,0,0.7-0.2c-1.3-1.9-4.3-6.7-6.2-10.9c-0.8-1.6,1.4-2.5,2.3-1C46.4,37.2,58.5,43,51.7,61.2
		c-3-15.8-12-19.9-15.7-21.4c-0.4-0.2-0.4-0.1-0.1,0.1c4.9,3,12.4,8.3,13.3,24.7C46.9,62.3,42.4,61.2,39.9,60.1 M20.7,0.9
		c-0.4-0.7-1.2-0.4-1.4,0.3c-6.5,24.7-4.5,41.7,3.9,52.3c11.3,13,26,9.1,26,15c-0.1,2.3-0.2,5.2-0.2,5.3c0,0.8,0.4,0.9,0.8,0.6
		c0.8-0.4,1.6-1.4,2.3-2.5c0.3-0.4,0.5-1.1,0.4-1.8c-0.1-2-0.2-3.8-0.5-5.6C72.2,33.3,24.3,13,20.7,0.9"/>
</g>
</svg>
